# xmcd
#
# Track frame offsets:
# 182
# 29282
# 51980
# 91110
# 112147
# 172122
#
# Disc length: 2563 seconds
#
#
# Revision: 1
# Processed by: cddbd v1.5.2PL0 Copyright (c) Steve Scherf et al.
# Submitted via: FreeRIP 2.951 
#
DISCID=4c0a0106
DTITLE=Rory Gallagher - Trickster´s Fake
DYEAR=1970
DGENRE=Rock
TTITLE0=Sugar Mama
TTITLE1=Railway And Gun
TTITLE2=I'll Remember
TTITLE3=She's 19 Years
TTITLE4=Catfish
TTITLE5=Same Old Story
EXTD=Live in HAMBURG, MARKTHALLE, Feb., 1970.
EXTT0=
EXTT1=
EXTT2=
EXTT3=
EXTT4=
EXTT5=
PLAYORDER=
